<svg width="42" height="42" viewBox="0 0 42 42" fill="none" xmlns="http://www.w3.org/2000/svg">
                <rect width="42" height="42" rx="21" fill="#FAFAFA" />
                <path
                        d="M12.8316 35.25C10.9375 34.5433 9.29706 33.5337 7.91029 32.2212C6.55735 30.9087 5.52573 29.3606 4.81544 27.5769C4.10515 25.8269 3.75 23.9087 3.75 21.8221C3.75 18.6587 4.44338 15.9159 5.83015 13.5937C7.25073 11.3053 9.24632 9.52163 11.8169 8.24279C14.3875 6.9976 17.4485 6.375 21 6.375C24.5515 6.375 27.6125 6.9976 30.1831 8.24279C32.7537 9.52163 34.7324 11.3053 36.1191 13.5938C37.5397 15.9159 38.25 18.625 38.25 21.7212C38.25 23.875 37.9456 25.7933 37.3368 27.476C36.7618 29.1587 35.8824 30.5889 34.6985 31.7668C33.5485 32.9784 32.1279 33.9375 30.4368 34.6442L28.5596 30.6562C30.4875 29.9159 31.9419 28.8389 32.9228 27.4255C33.9375 26.0457 34.4449 24.2452 34.4449 22.024C34.4449 19.7692 35.1044 14.9988 34.0221 13.2824C32.9735 11.5661 30.2507 13.0048 28.2551 12.0288C26.2596 11.0865 23.8412 10.6154 21 10.6154C18.1926 10.6154 15.7743 11.0697 13.7449 11.9784C11.7493 12.887 8.6375 11.5998 7.55515 13.2824C6.50662 14.9651 7.55515 19.5337 7.55515 21.8221C7.55515 24.0433 8.11323 25.9784 9.22941 27.6274C10.3794 29.2764 12.0875 30.4712 14.3537 31.2115L12.8316 35.25Z"
                        fill="#FBA374"
                />
                <path
                        d="M18.1673 20.6442C18.1673 21.8059 17.2209 22.7476 16.0533 22.7476C14.8858 22.7476 13.9394 21.8059 13.9394 20.6442C13.9394 19.4826 14.8858 18.5409 16.0533 18.5409C17.2209 18.5409 18.1673 19.4826 18.1673 20.6442Z"
                        fill="#FBA374"
                />
                <path
                        d="M27.6802 20.6442C27.6802 21.8059 26.7337 22.7476 25.5662 22.7476C24.3987 22.7476 23.4522 21.8059 23.4522 20.6442C23.4522 19.4826 24.3987 18.5409 25.5662 18.5409C26.7337 18.5409 27.6802 19.4826 27.6802 20.6442Z"
                        fill="#FBA374"
                />
            </svg>