<svg width="25" height="25" viewBox="0 0 25 25" fill="none" xmlns="http://www.w3.org/2000/svg">
<path d="M12.5036 23.6557C12.2047 23.6557 11.9083 23.5776 11.6463 23.4266L8.91718 21.8104C8.50936 21.5823 8.70832 21.5016 8.8427 21.4552C9.38645 21.2651 9.49634 21.2219 10.0766 20.8922C10.1375 20.8573 10.2172 20.8698 10.2797 20.9068L12.3766 22.151C12.4521 22.1922 12.5599 22.1922 12.6297 22.151L20.8052 17.4318C20.8807 17.3885 20.9302 17.301 20.9302 17.2109V7.77708C20.9302 7.68281 20.8812 7.59896 20.8036 7.55208L12.6318 2.83646C12.5562 2.79167 12.4557 2.79167 12.3802 2.83646L4.20936 7.55156C4.1302 7.59635 4.07968 7.68437 4.07968 7.77448V17.2089C4.07968 17.299 4.12864 17.3849 4.20676 17.4276L6.44582 18.7208C7.66145 19.3286 8.40416 18.6125 8.40416 17.8922V8.58125C8.40416 8.44844 8.50832 8.34583 8.64166 8.34583H9.67707C9.80624 8.34583 9.91249 8.44792 9.91249 8.58125V17.8969C9.91249 19.5177 9.02864 20.449 7.49166 20.449C7.01874 20.449 6.64634 20.449 5.60676 19.9375L3.46197 18.7016C2.93176 18.3943 2.60416 17.8208 2.60416 17.2094V7.775C2.60416 7.16094 2.93176 6.58802 3.46145 6.2849L11.6458 1.56354C12.1635 1.27083 12.851 1.27083 13.3651 1.56354L21.5391 6.28698C22.0661 6.59167 22.3958 7.16302 22.3958 7.77708V17.2115C22.3958 17.8234 22.0661 18.3943 21.5385 18.7016L13.3646 23.4224C13.1026 23.574 12.8057 23.6516 12.5031 23.6516" fill="currentColor"/>
<path d="M15.0292 17.1547C11.4521 17.1547 10.7021 15.5125 10.7021 14.1354C10.7021 14.0047 10.8078 13.9 10.9391 13.9H11.9953C12.112 13.9 12.2104 13.9849 12.2286 14.1C12.388 15.176 12.863 15.7188 15.026 15.7188C16.749 15.7188 17.4818 15.3297 17.4818 14.4156C17.4818 13.8896 17.2729 13.499 14.5964 13.237C12.3573 13.0161 10.974 12.5229 10.974 10.7323C10.974 9.08282 12.3656 8.10052 14.6964 8.10052C17.3141 8.10052 18.6115 9.00938 18.775 10.9615C18.7813 11.0292 18.7568 11.0943 18.7115 11.1438C18.6667 11.1906 18.6031 11.2193 18.5375 11.2193H17.4755C17.3651 11.2193 17.2688 11.1417 17.2464 11.0349C16.9906 9.90313 16.3724 9.54115 14.6922 9.54115C12.8115 9.54115 12.5927 10.1958 12.5927 10.687C12.5927 11.2823 12.8505 11.4563 15.388 11.7922C17.901 12.1255 19.0943 12.5964 19.0943 14.3625C19.0943 16.1427 17.6083 17.1641 15.0177 17.1641" fill="currentColor"/>
</svg>
